# xmcd
#
# Track frame offsets: 
#        150
#        5347
#        12578
#        26795
#        36842
#        51309
#        64636
#        76111
#        84693
#        97206
#        109145
#        122118
#        132576
#        134349
#        140330
#        142187
#        145274
#        150528
#        154680
#        157466
#        159276
#        166822
#        181288
#        194653
#        208675
#        221015
#        233159
#        245569
#        257473
#        270027
#        282385
#
# Disc length: 3800 seconds
#
# Revision: 0
# Processed by: cddbd v1.5.2PL0 Copyright (c) Steve Scherf et al.
# Submitted via: ExactAudioCopy v0.95b3
#
DISCID=c80ed61f
DTITLE=The Beatles  - Live 11 - The Last Tour (Purple Chick) - Disc 2
DYEAR=1900
DGENRE=
TTITLE0=intro (Memphis 1966) (evening)
TTITLE1=Rock and Roll Music (Memphis 1966) (evening)
TTITLE2=She's A Woman (Memphis 1966) (evening)
TTITLE3=If I Needed Someone (Memphis 1966) (evening)
TTITLE4=Day Tripper (Memphis 1966) (evening)
TTITLE5=Baby's In Black (Memphis 1966) (evening)
TTITLE6=I Feel Fine (Memphis 1966) (evening)
TTITLE7=Yesterday (Memphis 1966) (evening)
TTITLE8=I Wanna Be Your Man (Memphis 1966) (evening)
TTITLE9=Nowhere Man (Memphis 1966) (evening)
TTITLE10=Paperback Writer (Memphis 1966) (evening)
TTITLE11=Long Tall Sally (Memphis 1966) (evening)
TTITLE12=Rock and Roll Music-She's A Woman (St Louis 1966)
TTITLE13=intro (New York 1966)
TTITLE14=She's A Woman (New York 1966)
TTITLE15=If I Needed Someone (New York 1966)
TTITLE16=I Feel Fine (New York 1966)
TTITLE17=Yesterday (New York 1966)
TTITLE18=Paperback Writer (New York 1966)
TTITLE19=outro (New York 1966)
TTITLE20=Rock and Roll Music (San Francisco 1966)
TTITLE21=She's A Woman (San Francisco 1966)
TTITLE22=If I Needed Someone (San Francisco 1966)
TTITLE23=Day Tripper (San Francisco 1966)
TTITLE24=Baby's In Black (San Francisco 1966)
TTITLE25=I Feel Fine (San Francisco 1966)
TTITLE26=Yesterday (San Francisco 1966)
TTITLE27=I Wanna Be Your Man (San Francisco 1966)
TTITLE28=Nowhere Man (San Francisco 1966)
TTITLE29=Paperback Writer (San Francisco 1966)
TTITLE30=Long Tall Sally (San Francisco 1966)
EXTD=
EXTT0=
EXTT1=
EXTT2=
EXTT3=
EXTT4=
EXTT5=
EXTT6=
EXTT7=
EXTT8=
EXTT9=
EXTT10=
EXTT11=
EXTT12=
EXTT13=
EXTT14=
EXTT15=
EXTT16=
EXTT17=
EXTT18=
EXTT19=
EXTT20=
EXTT21=
EXTT22=
EXTT23=
EXTT24=
EXTT25=
EXTT26=
EXTT27=
EXTT28=
EXTT29=
EXTT30=
PLAYORDER=
